<?xml version="1.0" encoding="UTF-8"?><svg id="Layer_1" xmlns="http://www.w3.org/2000/svg" viewBox="0 0 600 905"><defs><style>.cls-1{fill:#855477;}</style></defs><path class="cls-1" d="M300,7.74c40.22,0,79.25,7.85,116,23.34,35.5,14.96,67.41,36.38,94.84,63.67,27.43,27.28,49.01,59.07,64.16,94.48,15.68,36.64,23.74,75.6,23.97,115.78l.02,.79V904H1V306h.02v-.99c.23-40.18,8.3-79.13,23.97-115.78,15.15-35.41,36.74-67.2,64.16-94.48,27.43-27.29,59.34-48.71,94.84-63.67,36.75-15.49,75.78-23.34,116-23.34m0-1C134.9,6.74,.96,140.12,.02,305h-.02V905H600V305h-.02C599.04,140.12,465.1,6.74,300,6.74h0Z"/></svg>