<?xml version="1.0" encoding="UTF-8"?><svg id="Layer_1" xmlns="http://www.w3.org/2000/svg" viewBox="0 0 420 420"><defs><style>.cls-1{fill:none;}.cls-1,.cls-2{stroke:#c4a4bb;stroke-miterlimit:10;stroke-width:2px;}.cls-2{fill:#f0e3ec;}</style></defs><circle class="cls-1" cx="210" cy="210" r="178.95"/><path class="cls-2" d="M220.29,40.92c8.47-5.74,18.81-6.81,23.71-6.92-4.9-.12-15.24-1.18-23.71-6.92,2.02-4.67,5.05-8.33,6.84-10.2-1.87,1.79-5.53,4.81-10.2,6.84-5.74-8.47-6.81-18.81-6.92-23.71-.12,4.9-1.18,15.24-6.92,23.71-4.67-2.02-8.33-5.05-10.2-6.84,1.78,1.87,4.81,5.53,6.84,10.2-8.47,5.74-18.81,6.81-23.71,6.92,4.9,.12,15.24,1.18,23.71,6.92-2.02,4.67-5.05,8.33-6.84,10.2,1.87-1.79,5.53-4.81,10.2-6.84,5.74,8.47,6.81,18.81,6.92,23.71,.12-4.9,1.18-15.24,6.92-23.71,4.67,2.02,8.33,5.05,10.2,6.84-1.79-1.87-4.82-5.53-6.84-10.2Z"/><path class="cls-2" d="M220.29,392.92c8.47-5.74,18.81-6.81,23.71-6.92-4.9-.12-15.24-1.18-23.71-6.92,2.02-4.67,5.05-8.33,6.84-10.2-1.87,1.79-5.53,4.81-10.2,6.84-5.74-8.47-6.81-18.81-6.92-23.71-.12,4.9-1.18,15.24-6.92,23.71-4.67-2.02-8.33-5.05-10.2-6.84,1.78,1.87,4.81,5.53,6.84,10.2-8.47,5.74-18.81,6.81-23.71,6.92,4.9,.12,15.24,1.18,23.71,6.92-2.02,4.67-5.05,8.33-6.84,10.2,1.87-1.79,5.53-4.81,10.2-6.84,5.74,8.47,6.81,18.81,6.92,23.71,.12-4.9,1.18-15.24,6.92-23.71,4.67,2.02,8.33,5.05,10.2,6.84-1.79-1.87-4.82-5.53-6.84-10.2Z"/><path class="cls-2" d="M379.08,220.29c5.74,8.47,6.81,18.81,6.92,23.71,.12-4.9,1.18-15.24,6.92-23.71,4.67,2.02,8.33,5.05,10.2,6.84-1.79-1.87-4.81-5.53-6.84-10.2,8.47-5.74,18.81-6.81,23.71-6.92-4.9-.12-15.24-1.18-23.71-6.92,2.02-4.67,5.05-8.33,6.84-10.2-1.87,1.78-5.53,4.81-10.2,6.84-5.74-8.47-6.81-18.81-6.92-23.71-.12,4.9-1.18,15.24-6.92,23.71-4.67-2.02-8.33-5.05-10.2-6.84,1.79,1.87,4.81,5.53,6.84,10.2-8.47,5.74-18.81,6.81-23.71,6.92,4.9,.12,15.24,1.18,23.71,6.92-2.02,4.67-5.05,8.33-6.84,10.2,1.87-1.79,5.53-4.82,10.2-6.84Z"/><path class="cls-2" d="M27.08,220.29c5.74,8.47,6.81,18.81,6.92,23.71,.12-4.9,1.18-15.24,6.92-23.71,4.67,2.02,8.33,5.05,10.2,6.84-1.79-1.87-4.81-5.53-6.84-10.2,8.47-5.74,18.81-6.81,23.71-6.92-4.9-.12-15.24-1.18-23.71-6.92,2.02-4.67,5.05-8.33,6.84-10.2-1.87,1.78-5.53,4.81-10.2,6.84-5.74-8.47-6.81-18.81-6.92-23.71-.12,4.9-1.18,15.24-6.92,23.71-4.67-2.02-8.33-5.05-10.2-6.84,1.79,1.87,4.81,5.53,6.84,10.2-8.47,5.74-18.81,6.81-23.71,6.92,4.9,.12,15.24,1.18,23.71,6.92-2.02,4.67-5.05,8.33-6.84,10.2,1.87-1.79,5.53-4.82,10.2-6.84Z"/><g><path class="cls-2" d="M83.17,322.28c-10.05-1.93-18.12-8.49-21.66-11.87,3.38,3.54,9.94,11.61,11.87,21.66-4.73,1.87-9.46,2.32-12.05,2.38,2.59,.06,7.32,.51,12.05,2.38-1.93,10.05-8.49,18.12-11.87,21.66,3.54-3.38,11.61-9.94,21.66-11.87,1.87,4.73,2.32,9.46,2.38,12.05,.06-2.59,.51-7.32,2.38-12.05,10.05,1.93,18.12,8.49,21.66,11.87-3.38-3.54-9.94-11.61-11.87-21.66,4.73-1.87,9.46-2.32,12.05-2.38-2.59-.06-7.32-.51-12.05-2.38,1.93-10.05,8.49-18.12,11.87-21.66-3.54,3.38-11.61,9.94-21.66,11.87-1.87-4.73-2.32-9.46-2.38-12.05-.06,2.59-.51,7.32-2.38,12.05Z"/><path class="cls-2" d="M332.07,73.38c-10.05-1.93-18.12-8.49-21.66-11.87,3.38,3.54,9.94,11.61,11.87,21.66-4.73,1.87-9.46,2.32-12.05,2.38,2.59,.06,7.32,.51,12.05,2.38-1.93,10.05-8.49,18.12-11.87,21.66,3.54-3.38,11.61-9.94,21.66-11.87,1.87,4.73,2.32,9.46,2.38,12.05,.06-2.59,.51-7.32,2.38-12.05,10.05,1.93,18.12,8.49,21.66,11.87-3.38-3.54-9.94-11.61-11.87-21.66,4.73-1.87,9.46-2.32,12.05-2.38-2.59-.06-7.32-.51-12.05-2.38,1.93-10.05,8.49-18.12,11.87-21.66-3.54,3.38-11.61,9.94-21.66,11.87-1.87-4.73-2.32-9.46-2.38-12.05-.06,2.59-.51,7.32-2.38,12.05Z"/><path class="cls-2" d="M97.72,83.17c1.93-10.05,8.49-18.12,11.87-21.66-3.54,3.38-11.61,9.94-21.66,11.87-1.87-4.73-2.32-9.46-2.38-12.05-.06,2.59-.51,7.32-2.38,12.05-10.05-1.93-18.12-8.49-21.66-11.87,3.38,3.54,9.94,11.61,11.87,21.66-4.73,1.87-9.46,2.32-12.05,2.38,2.59,.06,7.32,.51,12.05,2.38-1.93,10.05-8.49,18.12-11.87,21.66,3.54-3.38,11.61-9.94,21.66-11.87,1.87,4.73,2.32,9.46,2.38,12.05,.06-2.59,.51-7.32,2.38-12.05,10.05,1.93,18.12,8.49,21.66,11.87-3.38-3.54-9.94-11.61-11.87-21.66,4.73-1.87,9.46-2.32,12.05-2.38-2.59-.06-7.32-.51-12.05-2.38Z"/><path class="cls-2" d="M346.62,332.07c1.93-10.05,8.49-18.12,11.87-21.66-3.54,3.38-11.61,9.94-21.66,11.87-1.87-4.73-2.32-9.46-2.38-12.05-.06,2.59-.51,7.32-2.38,12.05-10.05-1.93-18.12-8.49-21.66-11.87,3.38,3.54,9.94,11.61,11.87,21.66-4.73,1.87-9.46,2.32-12.05,2.38,2.59,.06,7.32,.51,12.05,2.38-1.93,10.05-8.49,18.12-11.87,21.66,3.54-3.38,11.61-9.94,21.66-11.87,1.87,4.73,2.32,9.46,2.38,12.05,.06-2.59,.51-7.32,2.38-12.05,10.05,1.93,18.12,8.49,21.66,11.87-3.38-3.54-9.94-11.61-11.87-21.66,4.73-1.87,9.46-2.32,12.05-2.38-2.59-.06-7.32-.51-12.05-2.38Z"/></g></svg>