<?xml version="1.0" encoding="UTF-8"?><svg xmlns="http://www.w3.org/2000/svg" viewBox="0 0 200 200"><defs><style>.cls-1{fill:none;stroke:#f8f8f8;stroke-linecap:round;stroke-miterlimit:10;stroke-width:8px;}.cls-2{fill:#c4a4bb;}</style></defs><g id="Layer_1"><circle class="cls-2" cx="100" cy="100" r="100"/></g><g id="Layer_2"><path class="cls-1" d="M141.13,80.79c-.28-5.05-1.01-18.53-11.81-29.33-11.43-11.44-26.07-11.84-29.32-11.85-3.25,.01-17.89,.41-29.32,11.85-10.8,10.81-11.54,24.29-11.81,29.33-.47,8.52,1.32,17.18,10.4,35.54,5.35,10.82,13.53,25.38,25.79,41.6,2.48,3.28,7.41,3.28,9.89,0,12.26-16.22,20.43-30.79,25.79-41.6,9.08-18.36,10.87-27.02,10.4-35.54Zm-41.13,20.18c-10.71,0-19.4-8.69-19.4-19.4s8.69-19.4,19.4-19.4,19.4,8.69,19.4,19.4-8.69,19.4-19.4,19.4Z"/></g></svg>