<?xml version="1.0" encoding="UTF-8"?><svg xmlns="http://www.w3.org/2000/svg" viewBox="0 0 475.7 200"><defs><style>.cls-1{stroke:#f0e3ec;stroke-width:4px;}.cls-1,.cls-2{fill:none;stroke-miterlimit:10;}.cls-3{fill:#855477;}.cls-2{stroke:#855477;}</style></defs><g id="Layer_1"><path class="cls-3" d="M15.8,23.94c-4.36-4.41-4.99-11-5.06-13.85-.07,2.84-.7,9.44-5.06,13.85-1.57,1.59-3.22,2.48-4.55,2.99,1.33,.51,2.98,1.4,4.55,2.99,4.36,4.41,4.99,11,5.06,13.85,.07-2.84,.7-9.44,5.06-13.85,1.57-1.59,3.22-2.48,4.55-2.99-1.33-.51-2.98-1.4-4.55-2.99Z"/><path class="cls-3" d="M30.32,59.28c-2.87-2.9-3.29-7.25-3.33-9.12-.04,1.87-.46,6.22-3.33,9.12-1.04,1.05-2.12,1.63-3,1.97,.88,.34,1.96,.93,3,1.97,2.87,2.9,3.29,7.25,3.33,9.12,.04-1.87,.46-6.22,3.33-9.12,1.04-1.05,2.12-1.63,3-1.97-.88-.34-1.96-.93-3-1.97Z"/><path class="cls-3" d="M470.63,157.81c-3.79-3.83-4.33-9.56-4.39-12.03-.06,2.47-.6,8.2-4.39,12.03-1.37,1.38-2.8,2.15-3.96,2.6,1.16,.45,2.59,1.22,3.96,2.6,3.79,3.83,4.33,9.56,4.39,12.03,.06-2.47,.6-8.2,4.39-12.03,1.37-1.38,2.8-2.15,3.96-2.6-1.16-.45-2.59-1.22-3.96-2.6Z"/></g><g id="Layer_4"><ellipse class="cls-2" cx="236.46" cy="100.86" rx="182.33" ry="72.47" transform="translate(-10.81 30.55) rotate(-7.23)"/><ellipse class="cls-2" cx="235.76" cy="100.62" rx="182.33" ry="72.47" transform="translate(-17.62 61.84) rotate(-14.41)"/></g><g id="Layer_5"><g><path class="cls-1" d="M274.06,96.6c-2.69-1.97-5.77-3.77-9.22-5.39-3.45-1.62-6.96-2.96-10.52-4-3.56-1.05-7.07-2.17-10.52-3.39-3.45-1.22-6.52-2.42-9.22-3.61-2.7-1.19-4.87-2.74-6.52-4.65-1.65-1.91-2.48-4.09-2.48-6.52,0-4.4,1.71-8.03,5.13-10.87,3.42-2.84,8.81-4.26,16.17-4.26s12.76,2.58,14.43,3.44c2.18,1.11,5.01,2.6,7.38,5.78,1.59,2.12,2.38,4.21,2.79,5.61-.06-.62-.22-3.01,1.39-5.26,1.33-1.86,3.11-2.57,3.77-2.8-.72-.3-2.36-1.1-3.63-2.91-1.53-2.17-1.55-4.41-1.53-5.15-.63,.37-1.58,.85-2.79,1.16-2.04,.53-3.77,.32-5.82-.04-3.48-.61-5.21-1.28-7.17-1.65-3.04-.58-5.99-.87-8.83-.87-8.52,0-15.41,1.78-20.65,5.35-5.25,3.56-7.87,7.73-7.87,12.48,0,3.25,1.06,6.12,3.17,8.61,2.12,2.49,4.85,4.55,8.22,6.17,3.36,1.62,7.09,3.14,11.17,4.57,4.09,1.42,8.17,2.9,12.26,4.43,4.09,1.54,7.81,3.22,11.17,5.04,3.36,1.83,6.1,4.22,8.22,7.17,2.12,2.96,3.17,6.32,3.17,10.09,0,4.76-1.06,8.88-3.18,12.35-.44,.72-1.38,2.22-2.95,3.74-5.61,5.47-13.67,5.58-19.62,5.68-5.51,.09-9.4-.8-10.39-1.04-1.27-.31-2.17-.59-3.33-.96-8.15-2.62-12.92-4.15-15.58-8.23-.67-1.04-1.55-2.75-1.87-5.35,.01,.82-.07,3.01-1.52,5.21-1.37,2.07-3.18,3.01-3.94,3.35,.97,.56,2.77,1.77,4.22,3.99,1.31,2.01,1.74,3.94,1.9,5.03-.02-.95,.14-2.11,.9-2.97,1.99-2.24,6.88-1.4,9.71-.18,2.55,1.1,4.7,1.91,6.43,2.44,4.46,1.33,9.1,2,13.91,2,10.09,0,18.04-2.33,23.87-7,5.83-4.67,8.74-10.68,8.74-18.04,0-4-.83-7.59-2.48-10.78-1.65-3.18-3.83-5.77-6.52-7.74Z"/><path class="cls-1" d="M202.28,52.87c.81,.64,1.36,1.45,1.65,2.44,.17,.93-.17,3.1-1.04,6.52l-20.26,65.3-20.61-65.3c-.52-1.68-.88-2.96-1.09-3.83-.2-.87-.2-1.8,0-2.78,.2-.99,.74-1.77,1.61-2.35h-13.48c2.67,1.39,4.72,4.38,6.17,8.96v-.09l23.82,76.78c-.29,1.1-.71,2.49-1.26,4.17-.55,1.68-1.55,4.61-3,8.78-1.45,4.17-3.04,8.08-4.78,11.74-1.74,3.65-3.65,7.3-5.74,10.96-2.09,3.65-4.36,6.49-6.83,8.52-2.46,2.03-4.86,2.9-7.17,2.61-2.32-.29-3.83-1.32-4.52-3.09-.7-1.77-.7-3.77,0-6,.7-2.23,1.86-4.45,3.48-6.65-4.41,2.09-7.54,3.62-9.39,4.61-.93,1.79-1.42,3.59-1.48,5.39-.06,1.79,.28,3.45,1,4.96,.73,1.5,2,2.72,3.83,3.65,1.83,.93,4.04,1.39,6.65,1.39,3.3,0,6.66-1.77,10.09-5.3,3.42-3.54,6.38-7.77,8.87-12.69,2.49-4.93,4.75-9.94,6.78-15.04,2.03-5.1,3.57-9.33,4.61-12.69,1.04-3.36,1.57-5.13,1.57-5.3l23.82-76.69c1.39-4.64,3.39-7.62,6-8.96h-9.3Z"/><path class="cls-1" d="M316.45,136.08c-2.26-1.04-4.13-2.43-5.61-4.17-1.48-1.74-2.73-4.2-3.74-7.39-1.02-3.19-1.52-6.96-1.52-11.3V53.91h17.91v-2.69h-17.91v-17.83h-10.09c2.26,1.22,3.39,4.15,3.39,8.78v9.04h-7.48v2.69h7.48v59.3c0,4.7,.67,8.75,2,12.17,1.33,3.42,2.96,6.06,4.87,7.91,1.91,1.85,4.33,3.32,7.26,4.39,2.93,1.07,5.59,1.75,8,2.04,2.4,.29,5.14,.44,8.22,.44v-1.65c-2.43,0-4.61-.15-6.52-.44-1.91-.29-4-.95-6.26-2Z"/><path class="cls-1" d="M347.4,129.73V52.87h-10.09c2.26,1.16,3.39,4.15,3.39,8.96v67.73c0,4.81-1.13,7.8-3.39,8.96h13.48c-2.26-1.22-3.39-4.15-3.39-8.78Z"/><path class="cls-1" d="M436.87,114.69c-2.78,6.73-6.97,11.93-12.56,15.61-5.6,3.68-11.87,5.52-18.83,5.52-4.52,0-8.94-1.06-13.26-3.17-4.32-2.12-8.1-4.96-11.35-8.52-3.25-3.57-5.88-7.83-7.91-12.78-2.03-4.95-3.13-10.16-3.3-15.61,0-.12-.03-.55-.09-1.3-.06-.75-.06-1.24,0-1.48,.23-11.24,3.68-20.83,10.35-28.74,6.66-7.91,14.64-11.87,23.91-11.87,6.61,0,12.2,1.9,16.79,5.69,4.58,3.8,6.87,8.85,6.87,15.17h6.52c0-6.72-3.01-12.35-9.04-16.87-6.03-4.52-13.08-6.78-21.13-6.78-7.42,0-14.27,1.99-20.56,5.96-6.29,3.97-11.26,9.38-14.91,16.22-3.65,6.84-5.48,14.29-5.48,22.35s1.65,15.68,4.96,22.35c3.3,6.67,8.22,12.01,14.74,16.04,6.52,4.03,14.16,6.04,22.91,6.04,8.11,0,15.09-2.06,20.91-6.17,5.83-4.11,10.04-9.68,12.65-16.69l-2.18-.96Z"/><path class="cls-1" d="M343.94,44.49c.04-1.87,.46-6.22,3.33-9.12,1.04-1.05,2.12-1.63,3-1.97-.88-.34-1.96-.92-3-1.97-2.87-2.9-3.29-7.25-3.33-9.12-.04,1.87-.46,6.22-3.33,9.12-1.04,1.05-2.12,1.63-3,1.97,.88,.34,1.96,.93,3,1.97,2.87,2.9,3.29,7.25,3.33,9.12Z"/><path class="cls-1" d="M144.72,138.51h0c-2.26-1.22-3.39-4.15-3.39-8.78v-51.56c0-3.36-.28-6.42-.83-9.17-.55-2.75-1.29-5.05-2.22-6.87-.93-1.83-2.06-3.43-3.39-4.82-1.33-1.39-2.67-2.46-4-3.22-1.33-.75-2.83-1.35-4.48-1.78-1.65-.44-3.15-.73-4.48-.87-1.33-.14-2.75-.22-4.26-.22-10.14,0-16.46,5.33-18.95,16-2.72-10.67-10.2-16-22.43-16-8.75,0-14.67,3.94-17.74,11.83v-1.88c.1-4.41,1.22-7.19,3.37-8.3h-.08c-.93-.36-2.06-.98-3.15-2.07-3.04-3.07-3.48-7.68-3.53-9.66-.05,1.98-.49,6.59-3.53,9.66-1.09,1.1-2.22,1.71-3.15,2.07h-.03s0,0,.01,0c0,0,0,0-.01,0,.02,0,.04,.02,.06,.03,2.22,1.18,3.33,4.15,3.33,8.92v67.73c0,4.81-1.13,7.8-3.39,8.96h13.48c-2.26-1.22-3.39-4.15-3.39-8.78v-55.65c.29-3.48,.94-6.52,1.96-9.13,1.01-2.61,2.14-4.59,3.39-5.95,1.25-1.36,2.71-2.45,4.39-3.26,1.68-.81,3.12-1.32,4.3-1.52,1.19-.2,2.42-.3,3.7-.3,1.39,0,2.65,.09,3.78,.26,1.13,.17,2.39,.52,3.78,1.04,1.39,.52,2.59,1.35,3.61,2.48,1.01,1.13,1.99,2.55,2.91,4.26,.93,1.71,1.64,3.94,2.13,6.69,.49,2.75,.74,5.93,.74,9.52v51.38c0,4.81-1.13,7.8-3.39,8.96h13.48c-2.26-1.22-3.39-4.15-3.39-8.78v-51.56c0-.35-.02-.81-.04-1.39-.03-.58-.04-1.01-.04-1.3,.17-3.77,.75-7.04,1.74-9.82,.98-2.78,2.12-4.9,3.39-6.35,1.27-1.45,2.77-2.61,4.48-3.48,1.71-.87,3.17-1.4,4.39-1.61,1.22-.2,2.49-.3,3.82-.3s2.65,.09,3.78,.26c1.13,.17,2.39,.52,3.78,1.04,1.39,.52,2.59,1.35,3.61,2.48,1.01,1.13,1.99,2.55,2.91,4.26,.93,1.71,1.64,3.94,2.13,6.69,.49,2.75,.74,5.93,.74,9.52v51.38c0,4.81-1.13,7.8-3.39,8.96h.07c.93,.36,2.08,.98,3.18,2.09,3.04,3.07,3.48,7.68,3.53,9.66,.05-1.98,.49-6.59,3.53-9.66,1.1-1.11,2.25-1.73,3.18-2.09Z"/></g></g><g id="Layer_2"><g><path class="cls-3" d="M274.06,96.6c-2.69-1.97-5.77-3.77-9.22-5.39-3.45-1.62-6.96-2.96-10.52-4-3.56-1.05-7.07-2.17-10.52-3.39-3.45-1.22-6.52-2.42-9.22-3.61-2.7-1.19-4.87-2.74-6.52-4.65-1.65-1.91-2.48-4.09-2.48-6.52,0-4.4,1.71-8.03,5.13-10.87,3.42-2.84,8.81-4.26,16.17-4.26s12.76,2.58,14.43,3.44c2.18,1.11,5.01,2.6,7.38,5.78,1.59,2.12,2.38,4.21,2.79,5.61-.06-.62-.22-3.01,1.39-5.26,1.33-1.86,3.11-2.57,3.77-2.8-.72-.3-2.36-1.1-3.63-2.91-1.53-2.17-1.55-4.41-1.53-5.15-.63,.37-1.58,.85-2.79,1.16-2.04,.53-3.77,.32-5.82-.04-3.48-.61-5.21-1.28-7.17-1.65-3.04-.58-5.99-.87-8.83-.87-8.52,0-15.41,1.78-20.65,5.35-5.25,3.56-7.87,7.73-7.87,12.48,0,3.25,1.06,6.12,3.17,8.61,2.12,2.49,4.85,4.55,8.22,6.17,3.36,1.62,7.09,3.14,11.17,4.57,4.09,1.42,8.17,2.9,12.26,4.43,4.09,1.54,7.81,3.22,11.17,5.04,3.36,1.83,6.1,4.22,8.22,7.17,2.12,2.96,3.17,6.32,3.17,10.09,0,4.76-1.06,8.88-3.18,12.35-.44,.72-1.38,2.22-2.95,3.74-5.61,5.47-13.67,5.58-19.62,5.68-5.51,.09-9.4-.8-10.39-1.04-1.27-.31-2.17-.59-3.33-.96-8.15-2.62-12.92-4.15-15.58-8.23-.67-1.04-1.55-2.75-1.87-5.35,.01,.82-.07,3.01-1.52,5.21-1.37,2.07-3.18,3.01-3.94,3.35,.97,.56,2.77,1.77,4.22,3.99,1.31,2.01,1.74,3.94,1.9,5.03-.02-.95,.14-2.11,.9-2.97,1.99-2.24,6.88-1.4,9.71-.18,2.55,1.1,4.7,1.91,6.43,2.44,4.46,1.33,9.1,2,13.91,2,10.09,0,18.04-2.33,23.87-7,5.83-4.67,8.74-10.68,8.74-18.04,0-4-.83-7.59-2.48-10.78-1.65-3.18-3.83-5.77-6.52-7.74Z"/><path class="cls-3" d="M202.28,52.87c.81,.64,1.36,1.45,1.65,2.44,.17,.93-.17,3.1-1.04,6.52l-20.26,65.3-20.61-65.3c-.52-1.68-.88-2.96-1.09-3.83-.2-.87-.2-1.8,0-2.78,.2-.99,.74-1.77,1.61-2.35h-13.48c2.67,1.39,4.72,4.38,6.17,8.96v-.09l23.82,76.78c-.29,1.1-.71,2.49-1.26,4.17-.55,1.68-1.55,4.61-3,8.78-1.45,4.17-3.04,8.08-4.78,11.74-1.74,3.65-3.65,7.3-5.74,10.96-2.09,3.65-4.36,6.49-6.83,8.52-2.46,2.03-4.86,2.9-7.17,2.61-2.32-.29-3.83-1.32-4.52-3.09-.7-1.77-.7-3.77,0-6,.7-2.23,1.86-4.45,3.48-6.65-4.41,2.09-7.54,3.62-9.39,4.61-.93,1.79-1.42,3.59-1.48,5.39-.06,1.79,.28,3.45,1,4.96,.73,1.5,2,2.72,3.83,3.65,1.83,.93,4.04,1.39,6.65,1.39,3.3,0,6.66-1.77,10.09-5.3,3.42-3.54,6.38-7.77,8.87-12.69,2.49-4.93,4.75-9.94,6.78-15.04,2.03-5.1,3.57-9.33,4.61-12.69,1.04-3.36,1.57-5.13,1.57-5.3l23.82-76.69c1.39-4.64,3.39-7.62,6-8.96h-9.3Z"/><path class="cls-3" d="M316.45,136.08c-2.26-1.04-4.13-2.43-5.61-4.17-1.48-1.74-2.73-4.2-3.74-7.39-1.02-3.19-1.52-6.96-1.52-11.3V53.91h17.91v-2.69h-17.91v-17.83h-10.09c2.26,1.22,3.39,4.15,3.39,8.78v9.04h-7.48v2.69h7.48v59.3c0,4.7,.67,8.75,2,12.17,1.33,3.42,2.96,6.06,4.87,7.91,1.91,1.85,4.33,3.32,7.26,4.39,2.93,1.07,5.59,1.75,8,2.04,2.4,.29,5.14,.44,8.22,.44v-1.65c-2.43,0-4.61-.15-6.52-.44-1.91-.29-4-.95-6.26-2Z"/><path class="cls-3" d="M347.4,129.73V52.87h-10.09c2.26,1.16,3.39,4.15,3.39,8.96v67.73c0,4.81-1.13,7.8-3.39,8.96h13.48c-2.26-1.22-3.39-4.15-3.39-8.78Z"/><path class="cls-3" d="M436.87,114.69c-2.78,6.73-6.97,11.93-12.56,15.61-5.6,3.68-11.87,5.52-18.83,5.52-4.52,0-8.94-1.06-13.26-3.17-4.32-2.12-8.1-4.96-11.35-8.52-3.25-3.57-5.88-7.83-7.91-12.78-2.03-4.95-3.13-10.16-3.3-15.61,0-.12-.03-.55-.09-1.3-.06-.75-.06-1.24,0-1.48,.23-11.24,3.68-20.83,10.35-28.74,6.66-7.91,14.64-11.87,23.91-11.87,6.61,0,12.2,1.9,16.79,5.69,4.58,3.8,6.87,8.85,6.87,15.17h6.52c0-6.72-3.01-12.35-9.04-16.87-6.03-4.52-13.08-6.78-21.13-6.78-7.42,0-14.27,1.99-20.56,5.96-6.29,3.97-11.26,9.38-14.91,16.22-3.65,6.84-5.48,14.29-5.48,22.35s1.65,15.68,4.96,22.35c3.3,6.67,8.22,12.01,14.74,16.04,6.52,4.03,14.16,6.04,22.91,6.04,8.11,0,15.09-2.06,20.91-6.17,5.83-4.11,10.04-9.68,12.65-16.69l-2.18-.96Z"/><path class="cls-3" d="M343.94,44.49c.04-1.87,.46-6.22,3.33-9.12,1.04-1.05,2.12-1.63,3-1.97-.88-.34-1.96-.92-3-1.97-2.87-2.9-3.29-7.25-3.33-9.12-.04,1.87-.46,6.22-3.33,9.12-1.04,1.05-2.12,1.63-3,1.97,.88,.34,1.96,.93,3,1.97,2.87,2.9,3.29,7.25,3.33,9.12Z"/><path class="cls-3" d="M144.72,138.51h0c-2.26-1.22-3.39-4.15-3.39-8.78v-51.56c0-3.36-.28-6.42-.83-9.17-.55-2.75-1.29-5.05-2.22-6.87-.93-1.83-2.06-3.43-3.39-4.82-1.33-1.39-2.67-2.46-4-3.22-1.33-.75-2.83-1.35-4.48-1.78-1.65-.44-3.15-.73-4.48-.87-1.33-.14-2.75-.22-4.26-.22-10.14,0-16.46,5.33-18.95,16-2.72-10.67-10.2-16-22.43-16-8.75,0-14.67,3.94-17.74,11.83v-1.88c.1-4.41,1.22-7.19,3.37-8.3h-.08c-.93-.36-2.06-.98-3.15-2.07-3.04-3.07-3.48-7.68-3.53-9.66-.05,1.98-.49,6.59-3.53,9.66-1.09,1.1-2.22,1.71-3.15,2.07h-.03s0,0,.01,0c0,0,0,0-.01,0,.02,0,.04,.02,.06,.03,2.22,1.18,3.33,4.15,3.33,8.92v67.73c0,4.81-1.13,7.8-3.39,8.96h13.48c-2.26-1.22-3.39-4.15-3.39-8.78v-55.65c.29-3.48,.94-6.52,1.96-9.13,1.01-2.61,2.14-4.59,3.39-5.95,1.25-1.36,2.71-2.45,4.39-3.26,1.68-.81,3.12-1.32,4.3-1.52,1.19-.2,2.42-.3,3.7-.3,1.39,0,2.65,.09,3.78,.26,1.13,.17,2.39,.52,3.78,1.04,1.39,.52,2.59,1.35,3.61,2.48,1.01,1.13,1.99,2.55,2.91,4.26,.93,1.71,1.64,3.94,2.13,6.69,.49,2.75,.74,5.93,.74,9.52v51.38c0,4.81-1.13,7.8-3.39,8.96h13.48c-2.26-1.22-3.39-4.15-3.39-8.78v-51.56c0-.35-.02-.81-.04-1.39-.03-.58-.04-1.01-.04-1.3,.17-3.77,.75-7.04,1.74-9.82,.98-2.78,2.12-4.9,3.39-6.35,1.27-1.45,2.77-2.61,4.48-3.48,1.71-.87,3.17-1.4,4.39-1.61,1.22-.2,2.49-.3,3.82-.3s2.65,.09,3.78,.26c1.13,.17,2.39,.52,3.78,1.04,1.39,.52,2.59,1.35,3.61,2.48,1.01,1.13,1.99,2.55,2.91,4.26,.93,1.71,1.64,3.94,2.13,6.69,.49,2.75,.74,5.93,.74,9.52v51.38c0,4.81-1.13,7.8-3.39,8.96h.07c.93,.36,2.08,.98,3.18,2.09,3.04,3.07,3.48,7.68,3.53,9.66,.05-1.98,.49-6.59,3.53-9.66,1.1-1.11,2.25-1.73,3.18-2.09Z"/></g></g></svg>