<?xml version="1.0" encoding="UTF-8"?><svg id="Layer_1" xmlns="http://www.w3.org/2000/svg" viewBox="0 0 200 200"><defs><style>.cls-1{fill:#FAF6F9;stroke:#855477;stroke-miterlimit:10;stroke-width:3px;}</style></defs><path class="cls-1" d="M130.27,120.36c24.91-16.88,55.33-20.02,69.73-20.36-14.4-.34-44.82-3.48-69.73-20.36,5.94-13.74,14.85-24.5,20.1-30.01-5.51,5.25-16.27,14.16-30.01,20.1C103.48,44.82,100.34,14.4,100,0c-.34,14.4-3.48,44.82-20.36,69.73-13.74-5.94-24.5-14.85-30.01-20.1,5.25,5.51,14.16,16.27,20.1,30.01C44.82,96.52,14.4,99.66,0,100c14.4,.34,44.82,3.48,69.73,20.36-5.94,13.74-14.86,24.5-20.1,30.01,5.51-5.25,16.27-14.16,30.01-20.1,16.88,24.91,20.02,55.33,20.36,69.73,.34-14.4,3.48-44.82,20.36-69.73,13.74,5.94,24.5,14.85,30.01,20.1-5.25-5.51-14.16-16.27-20.11-30.01Z"/></svg>