<?xml version="1.0" encoding="UTF-8"?><svg xmlns="http://www.w3.org/2000/svg" viewBox="0 0 200 200"><defs><style>.cls-1{fill:none;stroke:#FAF6F9;stroke-linecap:round;stroke-linejoin:round;stroke-width:8px;}.cls-2{fill:#c4a4bb;}</style></defs><g id="Layer_1"><circle class="cls-2" cx="100" cy="100.49" r="100"/></g><g id="Layer_2"><path class="cls-1" d="M48,53.23c-13.51,18.03,1.93,47.96,4.8,53.53,5.82,11.29,13.03,18.59,17.03,22.57,4.14,4.13,13.2,12.99,27.48,19.46,9.24,4.18,34.26,15.52,50.12,3.86,5.95-4.37,11.42-12.58,9.71-19.77-2.92-12.29-26.25-18.28-35.55-11.13-4.45,3.43-3.03,7.67-7.26,9.96-10.49,5.68-30.47-14.59-31.37-15.52-2.2-2.26-19.25-20.16-14.02-29.88,2.28-4.23,6.56-2.84,9.96-7.26,7.15-9.29,1.16-32.63-11.13-35.55-7.18-1.71-15.36,3.83-19.77,9.71Z"/></g></svg>